<?xml version="1.0" encoding="utf-8"?><!DOCTYPE svg PUBLIC "-//W3C//DTD SVG 1.1//EN" "http://www.w3.org/Graphics/SVG/1.1/DTD/svg11.dtd"><svg version="1.1" xmlns="http://www.w3.org/2000/svg" xmlns:xlink="http://www.w3.org/1999/xlink" width="20" height="20" viewBox="0 0 20 20" data-tags="upload"><g fill="#000" transform="scale(0.01953125 0.01953125)"><path d="M409.6 614.4h204.8v-307.2h153.6l-256-256-256 256h153.6v307.2zM990.106 692.838c-10.752-11.469-82.483-88.218-102.963-108.237-13.568-13.261-32.973-21.402-53.35-21.402h-89.958l156.877 153.293h-181.453c-5.222 0-9.933 2.662-12.288 6.81l-41.779 95.898h-306.381l-41.779-95.898c-2.355-4.147-7.117-6.81-12.288-6.81h-181.453l156.826-153.293h-89.907c-20.326 0-39.731 8.141-53.35 21.402-20.48 20.070-92.211 96.819-102.963 108.237-25.037 26.675-38.81 47.923-32.256 74.189l28.723 157.389c6.554 26.317 35.379 47.923 64.102 47.923h835.174c28.723 0 57.549-21.606 64.102-47.923l28.723-157.389c6.451-26.266-7.27-47.514-32.358-74.189z" /></g></svg>